<?xml version="1.0" encoding="UTF-8" standalone="no"?>
<!DOCTYPE svg PUBLIC "-//W3C//DTD SVG 1.1//EN" "http://www.w3.org/Graphics/SVG/1.1/DTD/svg11.dtd">
<svg width="100%" height="100%" viewBox="0 0 1770 166" version="1.1" xmlns="http://www.w3.org/2000/svg" xmlns:xlink="http://www.w3.org/1999/xlink" xml:space="preserve" xmlns:serif="http://www.serif.com/" style="fill-rule:evenodd;clip-rule:evenodd;stroke-linejoin:round;stroke-miterlimit:2;">
    <g transform="matrix(4.16667,0,0,4.16667,596.037,3.7625)">
        <path d="M0,12.641L-2.095,12.641L-5.544,3.901L-5.544,12.641L-8.47,12.641L-8.47,0L-4.244,0L-1.011,8.415L2.348,0L6.465,0L6.465,12.641L3.539,12.641L3.539,3.973L0,12.641Z" style="fill:rgb(35,31,32);fill-rule:nonzero;"/>
    </g>
    <g transform="matrix(4.16667,0,0,4.16667,-349.081,-1293.26)">
        <path d="M235.733,314.247L238.658,314.247L238.658,323.926L235.733,323.926L235.733,314.247ZM235.733,310.779L238.658,310.779L238.658,313.091L235.733,313.091L235.733,310.779Z" style="fill:rgb(35,31,32);fill-rule:nonzero;"/>
    </g>
    <g transform="matrix(4.16667,0,0,4.16667,679.923,41.2337)">
        <path d="M0,-2.383C-0.054,-3.467 -0.776,-4.009 -1.698,-4.009C-2.835,-4.009 -3.413,-3.341 -3.666,-2.383L0,-2.383ZM-1.806,3.865C-4.677,3.865 -6.736,1.897 -6.736,-1.048C-6.736,-3.991 -4.605,-6.248 -1.788,-6.248C0.939,-6.248 2.962,-4.37 2.962,-1.787C2.962,-1.39 2.907,-0.921 2.835,-0.469L-3.774,-0.469C-3.576,0.741 -2.799,1.554 -1.607,1.554C-0.361,1.554 0.163,1.029 0.794,0.163L2.673,1.445C1.499,3.07 0.307,3.865 -1.806,3.865" style="fill:rgb(35,31,32);fill-rule:nonzero;"/>
    </g>
    <g transform="matrix(4.16667,0,0,4.16667,-349.081,-1276.03)">
        <path d="M251.525,306.643L254.451,306.643L254.451,308.955L251.525,308.955L251.525,306.643ZM254.451,320.404C254.451,321.542 254.234,322.39 253.71,322.987C253.169,323.619 252.284,323.926 250.948,323.926C250.189,323.926 249.467,323.781 248.78,323.529L249.539,321.253C249.882,321.397 250.243,321.47 250.677,321.47C251.453,321.47 251.525,320.91 251.525,320.26L251.525,310.111L254.451,310.111L254.451,320.404Z" style="fill:rgb(35,31,32);fill-rule:nonzero;"/>
    </g>
    <g transform="matrix(4.16667,0,0,4.16667,742.232,44.4717)">
        <path d="M0,-3.937C-0.506,-4.407 -1.138,-4.768 -1.896,-4.768C-2.257,-4.768 -2.673,-4.587 -2.673,-4.244C-2.673,-3.684 -2.022,-3.377 -1.246,-3.052C-0.018,-2.546 1.571,-1.951 1.571,-0.055C1.571,2.077 -0.307,3.088 -2.221,3.088C-3.792,3.088 -5.147,2.473 -6.321,1.372L-4.731,-0.361C-3.973,0.361 -3.376,0.83 -2.383,0.83C-2.004,0.83 -1.336,0.65 -1.336,0.198C-1.336,-0.434 -2.203,-0.723 -3.142,-1.157C-4.262,-1.662 -5.472,-2.348 -5.472,-4.028C-5.472,-6.014 -3.72,-7.025 -1.896,-7.025C-0.56,-7.025 0.632,-6.574 1.571,-5.671L0,-3.937Z" style="fill:rgb(35,31,32);fill-rule:nonzero;"/>
    </g>
    <g transform="matrix(4.16667,0,0,4.16667,779.486,0)">
        <path d="M0,13.544L-2.041,10.221L-2.763,11.07L-2.763,13.544L-5.689,13.544L-5.689,0L-2.763,0L-2.763,7.477L-2.745,7.477L0.108,3.865L3.377,3.865L-0.109,7.946L3.576,13.544L0,13.544Z" style="fill:rgb(35,31,32);fill-rule:nonzero;"/>
    </g>
    <g transform="matrix(4.16667,0,0,4.16667,-349.081,-1293.26)">
        <path d="M275.383,314.247L278.308,314.247L278.308,323.926L275.383,323.926L275.383,314.247ZM275.383,310.779L278.308,310.779L278.308,313.091L275.383,313.091L275.383,310.779Z" style="fill:rgb(35,31,32);fill-rule:nonzero;"/>
    </g>
    <g transform="matrix(4.16667,0,0,4.16667,845.132,41.2337)">
        <path d="M0,-2.383C-0.054,-3.467 -0.776,-4.009 -1.698,-4.009C-2.835,-4.009 -3.413,-3.341 -3.666,-2.383L0,-2.383ZM-1.806,3.865C-4.677,3.865 -6.736,1.897 -6.736,-1.048C-6.736,-3.991 -4.605,-6.248 -1.788,-6.248C0.939,-6.248 2.962,-4.37 2.962,-1.787C2.962,-1.39 2.907,-0.921 2.835,-0.469L-3.774,-0.469C-3.576,0.741 -2.799,1.554 -1.607,1.554C-0.361,1.554 0.163,1.029 0.794,0.163L2.673,1.445C1.499,3.07 0.307,3.865 -1.806,3.865" style="fill:rgb(35,31,32);fill-rule:nonzero;"/>
    </g>
    <g transform="matrix(4.16667,0,0,4.16667,896.134,33.2604)">
        <path d="M0,-1.517L0.794,-1.517C2.04,-1.517 2.944,-1.914 2.944,-3.053C2.944,-4.046 2.221,-4.66 1.138,-4.66L0,-4.66L0,-1.517ZM1.21,-7.079C3.395,-7.079 6.05,-6.014 6.05,-3.106C6.05,-0.162 3.413,0.902 1.21,0.902L0,0.902L0,5.562L-2.926,5.562L-2.926,-7.079L1.21,-7.079Z" style="fill:rgb(35,31,32);fill-rule:nonzero;"/>
    </g>
    <g transform="matrix(4.16667,0,0,4.16667,938.203,50.7142)">
        <path d="M0,-7.151C0.541,-7.981 1.264,-8.524 2.185,-8.524C2.672,-8.524 3.142,-8.415 3.485,-8.271L2.763,-5.851C2.492,-5.995 2.167,-6.067 1.842,-6.067C1.191,-6.067 0.523,-5.706 0.198,-5.183L0.198,1.373L-2.727,1.373L-2.727,-8.306L-0.253,-8.306L0,-7.151Z" style="fill:rgb(35,31,32);fill-rule:nonzero;"/>
    </g>
    <g transform="matrix(4.16667,0,0,4.16667,970.152,46.5046)">
        <path d="M0,-4.913L-3.666,-4.913L-3.666,-7.296L3.829,-7.296L3.829,-5.96L0.307,-0.001L4.117,-0.001L4.117,2.383L-3.467,2.383L-3.467,1.028L0,-4.913Z" style="fill:rgb(35,31,32);fill-rule:nonzero;"/>
    </g>
    <g transform="matrix(4.16667,0,0,4.16667,1018.65,41.2337)">
        <path d="M0,-2.383C-0.054,-3.467 -0.776,-4.009 -1.698,-4.009C-2.835,-4.009 -3.413,-3.341 -3.666,-2.383L0,-2.383ZM-1.806,3.865C-4.677,3.865 -6.736,1.897 -6.736,-1.048C-6.736,-3.991 -4.605,-6.248 -1.788,-6.248C0.939,-6.248 2.962,-4.37 2.962,-1.787C2.962,-1.39 2.907,-0.921 2.835,-0.469L-3.774,-0.469C-3.576,0.741 -2.799,1.554 -1.607,1.554C-0.361,1.554 0.163,1.029 0.794,0.163L2.673,1.445C1.499,3.07 0.307,3.865 -1.806,3.865" style="fill:rgb(35,31,32);fill-rule:nonzero;"/>
    </g>
    <g transform="matrix(4.16667,0,0,4.16667,1056.55,31.905)">
        <path d="M0,-1.553C-1.463,-1.553 -2.149,-0.162 -2.149,1.084C-2.149,2.384 -1.355,3.648 -0.036,3.648C0.704,3.648 1.445,3.431 2.04,2.564L2.04,-0.632C1.39,-1.355 0.74,-1.553 0,-1.553M4.966,5.887L2.51,5.887L2.221,4.732C1.553,5.797 0.216,6.104 -0.723,6.104C-3.215,6.104 -5.111,3.811 -5.111,1.011C-5.111,-1.77 -3.215,-4.009 -0.704,-4.009C0.144,-4.009 1.318,-3.739 2.04,-2.889L2.04,-7.657L4.966,-7.657L4.966,5.887Z" style="fill:rgb(35,31,32);fill-rule:nonzero;"/>
    </g>
    <g transform="matrix(4.16667,0,0,4.16667,1108.45,44.4717)">
        <path d="M0,-3.937C-0.506,-4.407 -1.138,-4.768 -1.896,-4.768C-2.257,-4.768 -2.673,-4.587 -2.673,-4.244C-2.673,-3.684 -2.023,-3.377 -1.246,-3.052C-0.018,-2.546 1.571,-1.951 1.571,-0.055C1.571,2.077 -0.307,3.088 -2.221,3.088C-3.792,3.088 -5.147,2.473 -6.321,1.372L-4.731,-0.361C-3.973,0.361 -3.377,0.83 -2.383,0.83C-2.005,0.83 -1.336,0.65 -1.336,0.198C-1.336,-0.434 -2.203,-0.723 -3.142,-1.157C-4.262,-1.662 -5.472,-2.348 -5.472,-4.028C-5.472,-6.014 -3.72,-7.025 -1.896,-7.025C-0.56,-7.025 0.632,-6.574 1.571,-5.671L0,-3.937Z" style="fill:rgb(35,31,32);fill-rule:nonzero;"/>
    </g>
    <g transform="matrix(4.16667,0,0,4.16667,-349.081,-1293.26)">
        <path d="M353.052,314.247L355.977,314.247L355.977,323.926L353.052,323.926L353.052,314.247ZM353.052,310.779L355.977,310.779L355.977,313.091L353.052,313.091L353.052,310.779Z" style="fill:rgb(35,31,32);fill-rule:nonzero;"/>
    </g>
    <g transform="matrix(4.16667,0,0,4.16667,1169.27,57.4879)">
        <path d="M0,-6.284C-0.054,-7.368 -0.776,-7.91 -1.698,-7.91C-2.835,-7.91 -3.413,-7.242 -3.666,-6.284L0,-6.284ZM0.199,-0.361C-0.451,-0.108 -1.048,0.415 -1.048,1.047C-1.048,1.59 -0.704,1.969 -0.108,1.969C0.163,1.969 0.488,1.878 0.776,1.733L1.373,3.341C0.867,3.629 0.09,3.865 -0.794,3.865C-2.275,3.865 -3.377,2.997 -3.377,1.878C-3.377,1.21 -3.16,0.469 -2.492,-0.072C-5.002,-0.361 -6.736,-2.24 -6.736,-4.949C-6.736,-7.892 -4.605,-10.149 -1.788,-10.149C0.939,-10.149 2.962,-8.271 2.962,-5.688C2.962,-5.291 2.907,-4.822 2.835,-4.37L-3.774,-4.37C-3.576,-3.16 -2.799,-2.347 -1.607,-2.347C-0.361,-2.347 0.163,-2.872 0.794,-3.738L2.673,-2.456C1.932,-1.426 1.174,-0.74 0.199,-0.361" style="fill:rgb(35,31,32);fill-rule:nonzero;"/>
    </g>
    <g transform="matrix(4.16667,0,0,4.16667,1200.9,13.9967)">
        <path d="M0,7.043C0.633,7.747 1.283,7.946 2.041,7.946C3.504,7.946 4.19,6.555 4.19,5.309C4.19,4.009 3.395,2.745 2.077,2.745C1.318,2.745 0.596,2.979 0,3.846L0,7.043ZM-2.925,-3.359L0,-3.359L0,1.409C0.704,0.559 1.896,0.289 2.763,0.289C5.256,0.289 7.152,2.582 7.152,5.382C7.152,8.162 5.256,10.402 2.745,10.402C1.788,10.402 0.434,10.095 -0.234,8.957L-0.469,10.185L-2.925,10.185L-2.925,-3.359Z" style="fill:rgb(35,31,32);fill-rule:nonzero;"/>
    </g>
    <g transform="matrix(4.16667,0,0,4.16667,-349.081,-1293.26)">
        <path d="M380.741,314.247L383.666,314.247L383.666,323.926L380.741,323.926L380.741,314.247ZM380.741,310.779L383.666,310.779L383.666,313.091L380.741,313.091L380.741,310.779Z" style="fill:rgb(35,31,32);fill-rule:nonzero;"/>
    </g>
    <g transform="matrix(4.16667,0,0,4.16667,1277.21,47.105)">
        <path d="M0,-5.201C-1.3,-5.201 -2.149,-4.082 -2.149,-2.601C-2.149,-1.12 -1.3,0 0,0C1.3,0 2.149,-1.12 2.149,-2.601C2.149,-4.082 1.3,-5.201 0,-5.201M5.111,-2.601C5.111,0.252 2.998,2.456 0,2.456C-2.998,2.456 -5.111,0.252 -5.111,-2.601C-5.111,-5.454 -2.998,-7.657 0,-7.657C2.998,-7.657 5.111,-5.454 5.111,-2.601" style="fill:rgb(35,31,32);fill-rule:nonzero;"/>
    </g>
    <g transform="matrix(4.16667,0,0,4.16667,1316.28,50.7142)">
        <path d="M0,-7.151C0.541,-7.981 1.264,-8.524 2.185,-8.524C2.672,-8.524 3.142,-8.415 3.485,-8.271L2.763,-5.851C2.492,-5.995 2.167,-6.067 1.842,-6.067C1.191,-6.067 0.523,-5.706 0.198,-5.183L0.198,1.373L-2.727,1.373L-2.727,-8.306L-0.253,-8.306L0,-7.151Z" style="fill:rgb(35,31,32);fill-rule:nonzero;"/>
    </g>
    <g transform="matrix(4.16667,0,0,4.16667,1355.45,44.4717)">
        <path d="M0,-3.937C-0.506,-4.407 -1.138,-4.768 -1.896,-4.768C-2.257,-4.768 -2.673,-4.587 -2.673,-4.244C-2.673,-3.684 -2.023,-3.377 -1.246,-3.052C-0.018,-2.546 1.571,-1.951 1.571,-0.055C1.571,2.077 -0.307,3.088 -2.221,3.088C-3.792,3.088 -5.147,2.473 -6.321,1.372L-4.731,-0.361C-3.973,0.361 -3.377,0.83 -2.384,0.83C-2.005,0.83 -1.336,0.65 -1.336,0.198C-1.336,-0.434 -2.203,-0.723 -3.142,-1.157C-4.262,-1.662 -5.472,-2.348 -5.472,-4.028C-5.472,-6.014 -3.72,-7.025 -1.896,-7.025C-0.56,-7.025 0.632,-6.574 1.571,-5.671L0,-3.937Z" style="fill:rgb(35,31,32);fill-rule:nonzero;"/>
    </g>
    <g transform="matrix(4.16667,0,0,4.16667,1382.45,38.7546)">
        <path d="M0,-3.053L0,0.487C0,0.794 0,1.065 0.054,1.354C0.127,1.751 0.307,2.004 0.723,2.004C1.138,2.004 1.427,1.913 1.77,1.733L2.691,3.864C2.005,4.261 1.011,4.46 0.199,4.46C-1.372,4.46 -2.474,3.575 -2.799,2.202C-2.907,1.733 -2.925,1.209 -2.925,0.704L-2.925,-3.053L-4.027,-3.053L-4.027,-5.436L-2.925,-5.436L-2.383,-7.513L0,-7.513L0,-5.436L2.384,-5.436L2.384,-3.053L0,-3.053Z" style="fill:rgb(35,31,32);fill-rule:nonzero;"/>
    </g>
    <g transform="matrix(4.16667,0,0,4.16667,1436.56,32.6583)">
        <path d="M0,1.733L0.036,1.733L1.426,-3.973L4.479,-3.973L1.698,5.706L-1.373,5.706L-2.691,0.614L-2.727,0.614L-4.063,5.706L-7.205,5.706L-9.842,-3.973L-6.736,-3.973L-5.454,1.751L-5.418,1.751L-3.901,-3.973L-1.463,-3.973L0,1.733Z" style="fill:rgb(35,31,32);fill-rule:nonzero;"/>
    </g>
    <g transform="matrix(4.16667,0,0,4.16667,1478.13,47.105)">
        <path d="M0,-5.201C-1.3,-5.201 -2.149,-4.082 -2.149,-2.601C-2.149,-1.12 -1.3,0 0,0C1.3,0 2.149,-1.12 2.149,-2.601C2.149,-4.082 1.3,-5.201 0,-5.201M5.111,-2.601C5.111,0.252 2.998,2.456 0,2.456C-2.998,2.456 -5.111,0.252 -5.111,-2.601C-5.111,-5.454 -2.998,-7.657 0,-7.657C2.998,-7.657 5.111,-5.454 5.111,-2.601" style="fill:rgb(35,31,32);fill-rule:nonzero;"/>
    </g>
    <g transform="matrix(4.16667,0,0,4.16667,-349.081,-1099.91)">
        <rect x="356.25" y="293.411" width="4.696" height="1.48" style="fill:rgb(35,31,32);"/>
    </g>
    <g transform="matrix(4.16667,0,0,4.16667,1203.61,140.24)">
        <path d="M0,-9.535L-1.932,-9.535L-1.932,-5.346L-0.361,-5.346C1.318,-5.346 2.565,-5.959 2.565,-7.405C2.565,-8.687 1.535,-9.535 0,-9.535M3.16,1.553L-0.632,-3.793L-1.932,-3.793L-1.932,1.553L-3.666,1.553L-3.666,-11.088L0.091,-11.088C2.023,-11.088 4.407,-10.077 4.407,-7.458C4.407,-5.309 2.872,-4.226 1.318,-3.901L5.328,1.553L3.16,1.553Z" style="fill:rgb(35,31,32);fill-rule:nonzero;"/>
    </g>
    <g transform="matrix(4.16667,0,0,4.16667,1248.67,140.694)">
        <path d="M0,-6.141L-4.189,-6.141L-4.189,-7.585L2.185,-7.585L2.185,-6.864L-1.806,0L2.492,0L2.492,1.444L-3.991,1.444L-3.991,0.703L0,-6.141Z" style="fill:rgb(35,31,32);fill-rule:nonzero;"/>
    </g>
    <g transform="matrix(4.16667,0,0,4.16667,1270.43,131.659)">
        <path d="M0,-1.805L5.129,-1.805C5.056,-3.087 4.081,-4.225 2.727,-4.225C1.264,-4.225 0.325,-3.16 0,-1.805M-0.127,-0.487C-0.018,1.066 1.047,2.421 2.781,2.421C3.973,2.421 4.93,1.987 5.472,0.957L6.663,1.716C5.761,3.161 4.533,3.829 2.709,3.829C-0.163,3.829 -1.77,1.734 -1.77,-0.902C-1.77,-3.593 0.198,-5.634 2.709,-5.634C5.093,-5.634 6.826,-3.846 6.826,-1.426C6.826,-1.119 6.79,-0.722 6.754,-0.487L-0.127,-0.487Z" style="fill:rgb(35,31,32);fill-rule:nonzero;"/>
    </g>
    <g transform="matrix(4.16667,0,0,4.16667,1325.3,139.112)">
        <path d="M0,-5.382C-0.415,-5.743 -1.174,-6.05 -1.788,-6.05C-2.618,-6.05 -3.142,-5.562 -3.142,-4.859C-3.142,-4.172 -2.275,-3.829 -1.408,-3.486C-0.234,-3.034 1.228,-2.366 1.228,-0.795C1.228,1.228 -0.343,2.041 -2.041,2.041C-3.269,2.041 -4.442,1.553 -5.147,0.632L-3.991,-0.289C-3.395,0.343 -2.745,0.668 -2.023,0.668C-1.138,0.668 -0.397,0.216 -0.397,-0.723C-0.397,-1.427 -1.228,-1.752 -2.131,-2.113C-3.323,-2.582 -4.713,-3.107 -4.713,-4.732C-4.713,-6.555 -3.305,-7.423 -1.806,-7.423C-0.776,-7.423 0.253,-7.08 0.975,-6.43L0,-5.382Z" style="fill:rgb(35,31,32);fill-rule:nonzero;"/>
    </g>
    <g transform="matrix(4.16667,0,0,4.16667,1353.75,140.694)">
        <path d="M0,-6.141L-4.189,-6.141L-4.189,-7.585L2.185,-7.585L2.185,-6.864L-1.806,0L2.492,0L2.492,1.444L-3.991,1.444L-3.991,0.703L0,-6.141Z" style="fill:rgb(35,31,32);fill-rule:nonzero;"/>
    </g>
    <g transform="matrix(4.16667,0,0,4.16667,1387.61,131.742)">
        <path d="M0,-6.629L-0.993,-7.387L1.228,-10.439L2.42,-9.518L0,-6.629ZM-0.126,-4.136C-1.824,-4.136 -3.052,-2.674 -3.052,-0.922C-3.052,0.83 -1.824,2.292 -0.126,2.292C1.571,2.292 2.799,0.83 2.799,-0.922C2.799,-2.674 1.571,-4.136 -0.126,-4.136M4.479,-0.922C4.479,1.715 2.51,3.81 -0.126,3.81C-2.763,3.81 -4.732,1.715 -4.732,-0.922C-4.732,-3.559 -2.763,-5.654 -0.126,-5.654C2.51,-5.654 4.479,-3.559 4.479,-0.922" style="fill:rgb(35,31,32);fill-rule:nonzero;"/>
    </g>
    <g transform="matrix(4.16667,0,0,4.16667,1447.27,117.739)">
        <path d="M0,4.877L0.054,4.877L1.896,-2.076L3.558,-2.076L0.957,6.953L-0.813,6.953L-2.745,-0.071L-2.781,-0.071L-4.768,6.953L-6.61,6.953L-9.102,-2.076L-7.332,-2.076L-5.634,4.877L-5.598,4.877L-3.594,-2.076L-1.824,-2.076L0,4.877Z" style="fill:rgb(35,31,32);fill-rule:nonzero;"/>
    </g>
    <g transform="matrix(4.16667,0,0,4.16667,1506.77,139.112)">
        <path d="M0,-5.382C-0.415,-5.743 -1.174,-6.05 -1.788,-6.05C-2.618,-6.05 -3.142,-5.562 -3.142,-4.859C-3.142,-4.172 -2.275,-3.829 -1.408,-3.486C-0.234,-3.034 1.228,-2.366 1.228,-0.795C1.228,1.228 -0.343,2.041 -2.041,2.041C-3.269,2.041 -4.442,1.553 -5.147,0.632L-3.991,-0.289C-3.395,0.343 -2.745,0.668 -2.023,0.668C-1.138,0.668 -0.397,0.216 -0.397,-0.723C-0.397,-1.427 -1.228,-1.752 -2.131,-2.113C-3.323,-2.582 -4.713,-3.107 -4.713,-4.732C-4.713,-6.555 -3.305,-7.423 -1.806,-7.423C-0.776,-7.423 0.253,-7.08 0.975,-6.43L0,-5.382Z" style="fill:rgb(35,31,32);fill-rule:nonzero;"/>
    </g>
    <g transform="matrix(4.16667,0,0,4.16667,1527.45,138.135)">
        <path d="M0,-0.615C0.614,0.271 1.68,0.758 2.618,0.758C4.713,0.758 5.706,-0.922 5.706,-2.475C5.706,-4.154 4.533,-5.671 2.655,-5.671C1.68,-5.671 0.451,-5.075 0,-3.956L0,-0.615ZM0,-6.971L0,-5.761C0.65,-6.7 1.788,-7.188 2.871,-7.188C5.472,-7.188 7.386,-5.093 7.386,-2.438C7.386,-0.054 5.598,2.275 2.835,2.275C1.77,2.275 0.722,1.823 0,1.083L0,6.573L-1.643,6.573L-1.643,-6.971L0,-6.971Z" style="fill:rgb(35,31,32);fill-rule:nonzero;"/>
    </g>
    <g transform="matrix(4.16667,0,0,4.16667,-349.081,-1066.65)">
        <rect x="459.546" y="289.113" width="1.896" height="2.094" style="fill:rgb(35,31,32);"/>
    </g>
    <g transform="matrix(4.16667,0,0,4.16667,1618.96,140.694)">
        <path d="M0,-6.141L-4.189,-6.141L-4.189,-7.585L2.185,-7.585L2.185,-6.864L-1.806,0L2.492,0L2.492,1.444L-3.991,1.444L-3.991,0.703L0,-6.141Z" style="fill:rgb(35,31,32);fill-rule:nonzero;"/>
    </g>
    <g transform="matrix(4.16667,0,0,4.16667,1673.2,141.29)">
        <path d="M0,-6.428C-1.698,-6.428 -2.926,-4.966 -2.926,-3.214C-2.926,-1.462 -1.698,-0 0,-0C1.697,-0 2.925,-1.462 2.925,-3.214C2.925,-4.966 1.697,-6.428 0,-6.428M4.605,-3.214C4.605,-0.577 2.637,1.518 0,1.518C-2.637,1.518 -4.605,-0.577 -4.605,-3.214C-4.605,-5.85 -2.637,-7.946 0,-7.946C2.637,-7.946 4.605,-5.85 4.605,-3.214" style="fill:rgb(35,31,32);fill-rule:nonzero;"/>
    </g>
    <g transform="matrix(4.16667,0,0,4.16667,-349.081,-1066.65)">
        <rect x="491.778" y="289.113" width="1.896" height="2.094" style="fill:rgb(35,31,32);"/>
    </g>
    <g transform="matrix(4.16667,0,0,4.16667,1734.47,141.29)">
        <path d="M0,-6.428C-1.698,-6.428 -2.926,-4.966 -2.926,-3.214C-2.926,-1.462 -1.698,-0 0,-0C1.697,-0 2.925,-1.462 2.925,-3.214C2.925,-4.966 1.697,-6.428 0,-6.428M4.605,-3.214C4.605,-0.577 2.637,1.518 0,1.518C-2.637,1.518 -4.605,-0.577 -4.605,-3.214C-4.605,-5.85 -2.637,-7.946 0,-7.946C2.637,-7.946 4.605,-5.85 4.605,-3.214" style="fill:rgb(35,31,32);fill-rule:nonzero;"/>
    </g>
    <g transform="matrix(4.16667,0,0,4.16667,-349.081,-1066.65)">
        <rect x="506.482" y="289.113" width="1.896" height="2.094" style="fill:rgb(35,31,32);"/>
    </g>
    <g transform="matrix(4.16667,0,0,4.16667,585.695,125.355)">
        <path d="M0,-2.358L4.372,5.171L0.979,5.171L-1.978,-0.017L-3.066,1.271L-3.066,5.171L-6.005,5.171L-6.005,-7.529L-3.066,-7.529L-3.066,-2.794L0.798,-7.529L4.336,-7.529L0,-2.358Z" style="fill:rgb(35,31,32);fill-rule:nonzero;"/>
    </g>
    <g transform="matrix(4.16667,0,0,4.16667,625.038,137.525)">
        <path d="M0,-5.224C-1.306,-5.224 -2.159,-4.099 -2.159,-2.612C-2.159,-1.124 -1.306,0.001 0,0.001C1.306,0.001 2.159,-1.124 2.159,-2.612C2.159,-4.099 1.306,-5.224 0,-5.224M5.134,-2.612C5.134,0.255 3.012,2.468 0,2.468C-3.012,2.468 -5.134,0.255 -5.134,-2.612C-5.134,-5.478 -3.012,-7.692 0,-7.692C3.012,-7.692 5.134,-5.478 5.134,-2.612" style="fill:rgb(35,31,32);fill-rule:nonzero;"/>
    </g>
    <g transform="matrix(4.16667,0,0,4.16667,701.588,105.477)">
        <path d="M0,9.942L0,5.007C0,4.373 0,3.629 -0.218,3.138C-0.436,2.649 -0.889,2.467 -1.379,2.467C-1.996,2.467 -2.612,2.794 -3.012,3.411C-2.957,3.882 -2.939,4.39 -2.939,4.898L-2.939,9.942L-5.878,9.942L-5.878,5.007C-5.878,4.373 -5.878,3.629 -6.096,3.138C-6.313,2.649 -6.767,2.467 -7.257,2.467C-7.783,2.467 -8.4,2.703 -8.817,3.157L-8.817,9.942L-11.756,9.942L-11.756,0.217L-9.271,0.217L-9.053,1.306C-8.255,0.327 -7.221,0 -6.313,0C-5.37,0 -4.445,0.507 -3.81,1.288C-3.737,1.379 -3.683,1.469 -3.61,1.578C-2.685,0.236 -1.397,0 -0.436,0C0.508,0 1.433,0.507 2.068,1.288C2.867,2.304 2.939,3.538 2.939,4.898L2.939,9.942L0,9.942Z" style="fill:rgb(35,31,32);fill-rule:nonzero;"/>
    </g>
    <g transform="matrix(4.16667,0,0,4.16667,749.216,107.29)">
        <path d="M0,9.507L-0.254,8.255C-1.07,9.344 -2.231,9.725 -3.229,9.725C-4.173,9.725 -5.098,9.217 -5.733,8.437C-6.531,7.421 -6.604,6.187 -6.604,4.826L-6.604,-0.218L-3.665,-0.218L-3.665,4.717C-3.665,5.353 -3.665,6.096 -3.447,6.586C-3.229,7.076 -2.776,7.257 -2.286,7.257C-1.651,7.257 -0.871,6.912 -0.472,6.241L-0.472,-0.218L2.467,-0.218L2.467,9.507L0,9.507Z" style="fill:rgb(35,31,32);fill-rule:nonzero;"/>
    </g>
    <g transform="matrix(4.16667,0,0,4.16667,778.387,145.996)">
        <path d="M0,-9.507L0.254,-8.255C1.07,-9.344 2.231,-9.725 3.229,-9.725C4.173,-9.725 5.098,-9.217 5.733,-8.437C6.531,-7.42 6.604,-6.187 6.604,-4.826L6.604,0.218L3.665,0.218L3.665,-4.717C3.665,-5.352 3.665,-6.096 3.447,-6.586C3.229,-7.075 2.776,-7.257 2.286,-7.257C1.651,-7.257 0.871,-6.912 0.472,-6.241L0.472,0.218L-2.467,0.218L-2.467,-9.507L0,-9.507Z" style="fill:rgb(35,31,32);fill-rule:nonzero;"/>
    </g>
    <g transform="matrix(4.16667,0,0,4.16667,-349.081,-1112.57)">
        <path d="M279.208,292.549L282.147,292.549L282.147,302.274L279.208,302.274L279.208,292.549ZM279.208,289.066L282.147,289.066L282.147,291.388L279.208,291.388L279.208,289.066Z" style="fill:rgb(35,31,32);fill-rule:nonzero;"/>
    </g>
    <g transform="matrix(4.16667,0,0,4.16667,858.876,90.2067)">
        <path d="M0,13.607L-2.05,10.269L-2.776,11.122L-2.776,13.607L-5.715,13.607L-5.715,0L-2.776,0L-2.776,7.511L-2.758,7.511L0.109,3.882L3.393,3.882L-0.109,7.983L3.592,13.607L0,13.607Z" style="fill:rgb(35,31,32);fill-rule:nonzero;"/>
    </g>
    <g transform="matrix(4.16667,0,0,4.16667,898.939,123.77)">
        <path d="M0,1.379C-0.417,1.288 -0.78,1.216 -1.161,1.216C-2.05,1.216 -3.012,1.597 -3.012,2.631C-3.012,3.357 -2.376,3.81 -1.687,3.81C-0.998,3.81 -0.49,3.556 0,3.103L0,1.379ZM0.472,5.552L0.2,4.79C-0.381,5.533 -1.397,5.77 -2.358,5.77C-4.173,5.77 -5.878,4.608 -5.878,2.631C-5.878,0.273 -3.646,-0.472 -1.669,-0.472C-1.125,-0.472 -0.544,-0.399 0,-0.272L0,-0.345C0,-1.47 -0.436,-2.177 -1.778,-2.177C-2.867,-2.177 -3.792,-1.778 -4.663,-1.343L-5.425,-3.356C-4.1,-4.01 -2.612,-4.391 -1.125,-4.391C1.542,-4.391 2.939,-2.812 2.939,-0.272L2.939,5.552L0.472,5.552Z" style="fill:rgb(35,31,32);fill-rule:nonzero;"/>
    </g>
    <g transform="matrix(4.16667,0,0,4.16667,952.783,110.843)">
        <path d="M0,7.584C-1.034,8.527 -2.195,8.872 -3.665,8.872C-6.567,8.872 -8.581,6.785 -8.581,3.792C-8.581,0.962 -6.604,-1.288 -3.593,-1.288C-2.178,-1.288 -0.962,-0.834 0.055,0.036L-1.47,2.014C-2.014,1.488 -2.559,1.18 -3.32,1.18C-4.699,1.18 -5.606,2.377 -5.606,3.792C-5.606,5.243 -4.663,6.404 -3.393,6.404C-2.631,6.404 -2.159,6.224 -1.597,5.643L0,7.584Z" style="fill:rgb(35,31,32);fill-rule:nonzero;"/>
    </g>
    <g transform="matrix(4.16667,0,0,4.16667,968,165.575)">
        <path d="M0,-14.206L1.741,-8.853L1.778,-8.853L3.574,-14.206L6.749,-14.206L1.27,0L-1.36,-1.017L0.199,-5.152L-3.193,-14.206L0,-14.206Z" style="fill:rgb(35,31,32);fill-rule:nonzero;"/>
    </g>
    <g transform="matrix(4.16667,0,0,4.16667,-349.081,-1095.26)">
        <path d="M323.848,284.912L326.787,284.912L326.787,287.234L323.848,287.234L323.848,284.912ZM326.787,298.737C326.787,299.879 326.569,300.732 326.043,301.331C325.499,301.966 324.609,302.274 323.267,302.274C322.505,302.274 321.779,302.129 321.09,301.875L321.852,299.589C322.196,299.734 322.56,299.807 322.995,299.807C323.775,299.807 323.848,299.245 323.848,298.591L323.848,288.395L326.787,288.395L326.787,298.737Z" style="fill:rgb(35,31,32);fill-rule:nonzero;"/>
    </g>
    <g transform="matrix(4.16667,0,0,4.16667,1031.35,145.996)">
        <path d="M0,-9.507L0.254,-8.255C1.07,-9.344 2.231,-9.725 3.229,-9.725C4.173,-9.725 5.098,-9.217 5.733,-8.437C6.531,-7.42 6.604,-6.187 6.604,-4.826L6.604,0.218L3.665,0.218L3.665,-4.717C3.665,-5.352 3.665,-6.096 3.447,-6.586C3.229,-7.075 2.775,-7.257 2.286,-7.257C1.651,-7.257 0.871,-6.912 0.472,-6.241L0.472,0.218L-2.468,0.218L-2.468,-9.507L0,-9.507Z" style="fill:rgb(35,31,32);fill-rule:nonzero;"/>
    </g>
    <g transform="matrix(4.16667,0,0,4.16667,1092.91,131.629)">
        <path d="M0,-2.394C-0.055,-3.483 -0.78,-4.027 -1.705,-4.027C-2.849,-4.027 -3.429,-3.356 -3.683,-2.394L0,-2.394ZM-1.814,3.883C-4.699,3.883 -6.768,1.906 -6.768,-1.051C-6.768,-4.009 -4.626,-6.277 -1.796,-6.277C0.943,-6.277 2.976,-4.39 2.976,-1.795C2.976,-1.396 2.921,-0.924 2.849,-0.471L-3.792,-0.471C-3.592,0.745 -2.813,1.561 -1.614,1.561C-0.363,1.561 0.163,1.035 0.798,0.164L2.686,1.452C1.506,3.085 0.309,3.883 -1.814,3.883" style="fill:rgb(35,31,32);fill-rule:nonzero;"/>
    </g>
    <g transform="matrix(4.16667,0,0,4.16667,307.664,83.96)">
        <path d="M0,-4.124L-2.16,-4.124L-2.16,-12.672L0.932,-12.672C3.88,-12.672 5.844,-11.002 5.844,-8.3C5.844,-5.206 3.388,-4.124 0,-4.124M1.128,-19.257L-10.12,-19.257L-10.12,15.133L-2.16,15.133L-2.16,2.458L1.128,2.458C7.124,2.458 14.296,-0.44 14.296,-8.448C14.296,-16.358 7.072,-19.257 1.128,-19.257" style="fill:rgb(239,70,41);fill-rule:nonzero;"/>
    </g>
    <g transform="matrix(4.16667,0,0,4.16667,385.514,3.72417)">
        <path d="M0,34.389L7.96,34.389L7.96,0L0,0L0,34.389Z" style="fill:rgb(239,70,41);fill-rule:nonzero;"/>
    </g>
    <g transform="matrix(4.16667,0,0,4.16667,202.225,147.013)">
        <path d="M7.767,-34.379L-0.547,-34.379L-15.149,-14.2L-15.149,-34.379L-23.656,-34.379L-48.534,0L-38.224,0L-22.916,-21.154L-22.916,0L-15.114,0L0,-20.886L0,0L7.767,0L7.767,-34.379Z" style="fill:rgb(239,70,41);fill-rule:nonzero;"/>
    </g>
    <g transform="matrix(4.16667,0,0,4.16667,509.625,147.013)">
        <path d="M0,-34.379L-8.959,-34.379L-21.53,-17.194L-21.539,-17.194L-21.558,-17.181L-21.53,-17.181L-8.952,0L-0.078,0L-12.633,-17.13L0,-34.379Z" style="fill:rgb(239,70,41);fill-rule:nonzero;"/>
    </g>
</svg>
